<svg width="442" height="513" xmlns="http://www.w3.org/2000/svg" xmlns:xlink="http://www.w3.org/1999/xlink" xml:space="preserve" overflow="hidden"><defs><filter id="fx0" x="-10%" y="-10%" width="120%" height="120%" filterUnits="userSpaceOnUse" primitiveUnits="userSpaceOnUse"><feComponentTransfer color-interpolation-filters="sRGB"><feFuncR type="discrete" tableValues="0 0"/><feFuncG type="discrete" tableValues="0 0"/><feFuncB type="discrete" tableValues="0 0"/><feFuncA type="linear" slope="0.631373" intercept="0"/></feComponentTransfer><feGaussianBlur stdDeviation="6.875 6.875"/></filter><filter id="fx1" x="-10%" y="-10%" width="120%" height="120%" filterUnits="userSpaceOnUse" primitiveUnits="userSpaceOnUse"><feComponentTransfer color-interpolation-filters="sRGB"><feFuncR type="discrete" tableValues="0 0"/><feFuncG type="discrete" tableValues="0 0"/><feFuncB type="discrete" tableValues="0 0"/><feFuncA type="linear" slope="0.631373" intercept="0"/></feComponentTransfer><feGaussianBlur stdDeviation="6.875 6.875"/></filter><clipPath id="clip2"><rect x="1776" y="1146" width="442" height="513"/></clipPath><clipPath id="clip3"><rect x="-3" y="-3" width="413" height="413"/></clipPath><clipPath id="clip4"><rect x="0" y="0" width="407" height="406"/></clipPath><clipPath id="clip5"><rect x="137" y="108" width="170" height="210"/></clipPath><clipPath id="clip6"><rect x="0" y="0" width="443" height="506"/></clipPath><radialGradient cx="502920" cy="501534" r="710257" gradientUnits="userSpaceOnUse" spreadMethod="pad" id="fill7" gradientTransform="matrix(0.000360892 0 0 0.000360892 1816 1186)"><stop offset="0" stop-color="#0070C0"/><stop offset="0.0105263" stop-color="#006FBF"/><stop offset="0.0210526" stop-color="#006FBF"/><stop offset="0.0315789" stop-color="#006FBF"/><stop offset="0.0421053" stop-color="#006FBF"/><stop offset="0.0526316" stop-color="#006FBF"/><stop offset="0.0631579" stop-color="#006FBF"/><stop offset="0.0736842" stop-color="#006FBF"/><stop offset="0.0842105" stop-color="#006FBF"/><stop offset="0.0947368" stop-color="#006FBE"/><stop offset="0.105263" stop-color="#006EBE"/><stop offset="0.115789" stop-color="#006EBE"/><stop offset="0.126316" stop-color="#006EBE"/><stop offset="0.136842" stop-color="#006EBD"/><stop offset="0.147368" stop-color="#006DBD"/><stop offset="0.157895" stop-color="#006DBC"/><stop offset="0.168421" stop-color="#006DBC"/><stop offset="0.178947" stop-color="#006CBC"/><stop offset="0.189474" stop-color="#006CBB"/><stop offset="0.2" stop-color="#006CBB"/><stop offset="0.210526" stop-color="#006BBA"/><stop offset="0.221053" stop-color="#006BBA"/><stop offset="0.231579" stop-color="#006AB9"/><stop offset="0.242105" stop-color="#006AB9"/><stop offset="0.252632" stop-color="#0069B8"/><stop offset="0.263158" stop-color="#0069B8"/><stop offset="0.273684" stop-color="#0068B7"/><stop offset="0.284211" stop-color="#0068B6"/><stop offset="0.294737" stop-color="#0067B6"/><stop offset="0.305263" stop-color="#0067B5"/><stop offset="0.315789" stop-color="#0066B4"/><stop offset="0.326316" stop-color="#0066B4"/><stop offset="0.336842" stop-color="#0065B3"/><stop offset="0.347368" stop-color="#0064B2"/><stop offset="0.357895" stop-color="#0064B2"/><stop offset="0.368421" stop-color="#0063B1"/><stop offset="0.378947" stop-color="#0063B0"/><stop offset="0.389474" stop-color="#0062AF"/><stop offset="0.4" stop-color="#0061AE"/><stop offset="0.410526" stop-color="#0060AD"/><stop offset="0.421053" stop-color="#0060AD"/><stop offset="0.431579" stop-color="#005FAC"/><stop offset="0.442105" stop-color="#005EAB"/><stop offset="0.452632" stop-color="#005DAA"/><stop offset="0.463158" stop-color="#005DA9"/><stop offset="0.473684" stop-color="#005CA8"/><stop offset="0.484211" stop-color="#005BA7"/><stop offset="0.494737" stop-color="#005AA6"/><stop offset="0.505263" stop-color="#0059A5"/><stop offset="0.515789" stop-color="#0058A4"/><stop offset="0.526316" stop-color="#0057A3"/><stop offset="0.536842" stop-color="#0057A2"/><stop offset="0.547368" stop-color="#0056A0"/><stop offset="0.557895" stop-color="#00559F"/><stop offset="0.568421" stop-color="#00549E"/><stop offset="0.578947" stop-color="#00539D"/><stop offset="0.589474" stop-color="#00529C"/><stop offset="0.6" stop-color="#00519B"/><stop offset="0.610526" stop-color="#005099"/><stop offset="0.621053" stop-color="#004F98"/><stop offset="0.631579" stop-color="#004E97"/><stop offset="0.642105" stop-color="#004D96"/><stop offset="0.652632" stop-color="#004C94"/><stop offset="0.663158" stop-color="#004A93"/><stop offset="0.673684" stop-color="#004992"/><stop offset="0.684211" stop-color="#004890"/><stop offset="0.694737" stop-color="#00478F"/><stop offset="0.705263" stop-color="#00468E"/><stop offset="0.715789" stop-color="#00458C"/><stop offset="0.726316" stop-color="#00448B"/><stop offset="0.736842" stop-color="#004289"/><stop offset="0.747368" stop-color="#004188"/><stop offset="0.757895" stop-color="#004086"/><stop offset="0.768421" stop-color="#003F85"/><stop offset="0.778947" stop-color="#003D83"/><stop offset="0.789474" stop-color="#003C82"/><stop offset="0.8" stop-color="#003B80"/><stop offset="0.810526" stop-color="#003A7F"/><stop offset="0.821053" stop-color="#00387D"/><stop offset="0.831579" stop-color="#00377C"/><stop offset="0.842105" stop-color="#00367A"/><stop offset="0.852632" stop-color="#003478"/><stop offset="0.863158" stop-color="#003377"/><stop offset="0.873684" stop-color="#003175"/><stop offset="0.884211" stop-color="#003073"/><stop offset="0.894737" stop-color="#002F72"/><stop offset="0.905263" stop-color="#002D70"/><stop offset="0.915789" stop-color="#002C6E"/><stop offset="0.926316" stop-color="#002A6C"/><stop offset="0.936842" stop-color="#00296B"/><stop offset="0.947368" stop-color="#002769"/><stop offset="0.957895" stop-color="#002667"/><stop offset="0.968421" stop-color="#002465"/><stop offset="0.978947" stop-color="#002363"/><stop offset="0.989474" stop-color="#002161"/><stop offset="1" stop-color="#002060"/></radialGradient></defs><g clip-path="url(#clip2)" transform="translate(-1776 -1146)"><g clip-path="url(#clip3)" filter="url(#fx0)" transform="translate(1794 1171)"><g clip-path="url(#clip4)"><path d="M22 202.875C22 102.911 103.26 21.8749 203.5 21.8749 303.74 21.8749 385 102.911 385 202.875 385 302.838 303.74 383.875 203.5 383.875 103.26 383.875 22 302.838 22 202.875Z" fill="#FF0000" fill-rule="evenodd"/></g></g><g clip-path="url(#clip5)" filter="url(#fx1)" transform="translate(1776 1154)"><g clip-path="url(#clip6)"><path d="M84.3262-49.4141 43.5059-49.4141 43.5059-53.4961C43.5059-60.4427 44.2936-66.0824 45.8691-70.415 47.4447-74.7477 49.79-78.7044 52.9053-82.2851 56.0205-85.8659 63.0208-92.168 73.9062-101.191 79.707-105.918 82.6074-110.251 82.6074-114.189 82.6074-118.128 81.4437-121.19 79.1162-123.374 76.7887-125.558 73.2617-126.65 68.5351-126.65 63.4505-126.65 59.2432-124.967 55.9131-121.602 52.583-118.236 50.4525-112.363 49.5215-103.984L7.8418-109.141C9.27409-124.466 14.8421-136.802 24.5459-146.147 34.2497-155.493 49.1276-160.166 69.1797-160.166 84.7917-160.166 97.3958-156.908 106.992-150.391 120.026-141.582 126.543-129.837 126.543-115.156 126.543-109.069 124.86-103.197 121.494-97.5391 118.128-91.8815 111.253-84.9707 100.869-76.8066 93.6361-71.0775 89.0706-66.4762 87.1728-63.0029 85.2751-59.5296 84.3262-55 84.3262-49.4141ZM42.1094-38.5644 85.8301-38.5644 85.8301 0 42.1094 0Z" fill="#FFFFFF" transform="matrix(1 0 0 1 154.048 294)"/></g></g><path d="M1816 1367C1816 1267.04 1897.26 1186 1997.5 1186 2097.74 1186 2179 1267.04 2179 1367 2179 1466.96 2097.74 1548 1997.5 1548 1897.26 1548 1816 1466.96 1816 1367Z" fill="url(#fill7)" fill-rule="evenodd"/><text fill="#FFFFFF" font-family="Arial Black,Arial Black_MSFontService,sans-serif" font-weight="900" font-size="220" transform="matrix(1 0 0 1 1930.05 1441)">?</text></g></svg>