<?xml version="1.0" encoding="UTF-8"?>
<svg width="1200pt" height="1200pt" version="1.1" viewBox="0 0 1200 1200" xmlns="http://www.w3.org/2000/svg">
 <path d="m1103.1 413.93c0.49609 3.9141-0.84766 7.8398-3.6406 10.629-2.7891 2.793-6.7148 4.1367-10.629 3.6406l-236.58-29.898c-4.832-0.60938-8.8984-3.918-10.477-8.5312-1.5781-4.6094-0.39453-9.7148 3.0508-13.164l62.789-62.789c-38.109-41.109-84.078-74.148-135.19-97.172-51.105-23.02-106.32-35.551-162.36-36.852-21.398-0.53516-40.883-12.445-51.117-31.242-10.238-18.801-9.668-41.629 1.4961-59.895 11.164-18.262 31.219-29.184 52.617-28.648 71.266 1.6719 141.49 17.477 206.6 46.5 65.109 29.023 123.81 70.684 172.69 122.57l59.148-59.148c3.4453-3.4453 8.5547-4.6289 13.164-3.0508s7.9219 5.6445 8.5312 10.48zm-1043.1 172.95c-0.39844 15.883 5.5312 31.273 16.48 42.785 10.953 11.512 26.027 18.203 41.91 18.602 0.51562 0.011719 1.0195 0.019531 1.5195 0.019531 15.629-0.007812 30.633-6.1172 41.816-17.031s17.66-25.77 18.047-41.391c1.3008-56.039 13.832-111.25 36.855-162.35 23.02-51.105 56.062-97.074 97.172-135.18l62.793 62.793v-0.003906c3.4453 3.4492 8.5508 4.6328 13.164 3.0547 4.6094-1.5781 7.9219-5.6445 8.5312-10.48l29.898-236.57c0.49219-3.918-0.85156-7.8398-3.6406-10.629-2.7891-2.793-6.7148-4.1367-10.629-3.6406l-236.58 29.895c-4.832 0.61328-8.8984 3.9219-10.477 8.5352-1.5781 4.6094-0.39453 9.7148 3.0508 13.164l59.148 59.148c-51.887 48.879-93.547 107.58-122.57 172.69-29.02 65.109-44.824 135.34-46.492 206.6zm1080 26.234c0.39844-15.883-5.5312-31.27-16.48-42.781-10.949-11.516-26.027-18.203-41.91-18.602-0.51562-0.011718-1.0195-0.015624-1.5195-0.015624v-0.003907c-15.625 0.007813-30.633 6.1172-41.816 17.031-11.184 10.914-17.66 25.766-18.047 41.391-1.3008 56.035-13.832 111.24-36.852 162.35-23.023 51.105-56.066 97.074-97.176 135.18l-62.793-62.793c-3.4453-3.4453-8.5508-4.6289-13.164-3.0508-4.6094 1.5781-7.9219 5.6445-8.5312 10.48l-29.895 236.57c-0.49609 3.9141 0.84766 7.8398 3.6367 10.629 2.793 2.793 6.7148 4.1367 10.629 3.6406l236.58-29.895c4.8359-0.61328 8.9023-3.9219 10.48-8.5352 1.5781-4.6094 0.39453-9.7188-3.0547-13.164l-59.148-59.148c51.887-48.883 93.547-107.58 122.57-172.69 29.02-65.109 44.824-135.34 46.492-206.6zm-847.64 273.06 62.789-62.789c3.4453-3.4453 4.6328-8.5547 3.0508-13.164-1.5781-4.6133-5.6445-7.9219-10.477-8.5352l-236.58-29.895c-3.9141-0.49609-7.8398 0.84766-10.629 3.6406-2.7891 2.7891-4.1328 6.7148-3.6406 10.629l29.895 236.57h0.003906c0.60938 4.8359 3.9219 8.9023 8.5312 10.48 4.6133 1.5781 9.7188 0.39453 13.164-3.0508l59.148-59.148v-0.003906c48.883 51.887 107.58 93.547 172.69 122.57 65.109 29.023 135.33 44.828 206.6 46.5 0.51563 0.011719 1.0195 0.019531 1.5195 0.019531v-0.003906c21.223-0.007813 40.859-11.246 51.617-29.539 10.758-18.293 11.035-40.91 0.73047-59.461-10.305-18.555-29.656-30.27-50.871-30.801-56.039-1.3008-111.25-13.832-162.36-36.852-51.109-23.023-97.078-56.062-135.19-97.172z" fill="#c84f00"/>
</svg>
