<svg width="780" height="853" xmlns="http://www.w3.org/2000/svg" xmlns:xlink="http://www.w3.org/1999/xlink" xml:space="preserve" overflow="hidden"><defs><filter id="fx0" x="-10%" y="-10%" width="120%" height="120%" filterUnits="userSpaceOnUse" primitiveUnits="userSpaceOnUse"><feComponentTransfer color-interpolation-filters="sRGB"><feFuncR type="discrete" tableValues="0 0"/><feFuncG type="discrete" tableValues="0 0"/><feFuncB type="discrete" tableValues="0 0"/><feFuncA type="linear" slope="0.4" intercept="0"/></feComponentTransfer><feGaussianBlur stdDeviation="7.61935 7.66569"/></filter><clipPath id="clip1"><rect x="2230" y="1604" width="780" height="853"/></clipPath><clipPath id="clip2"><rect x="-7.48083" y="-7.52634" width="145.959" height="158.053"/></clipPath><clipPath id="clip3"><rect x="0" y="0" width="130" height="143"/></clipPath><linearGradient x1="2899.91" y1="2275.17" x2="2339.97" y2="1785.59" gradientUnits="userSpaceOnUse" spreadMethod="reflect" id="fill4"><stop offset="0" stop-color="#FFA800"/><stop offset="0.6" stop-color="#FFA800"/><stop offset="1" stop-color="#FF5A00"/></linearGradient><radialGradient cx="947488" cy="1.1967e+06" r="1.52674e+06" fx="947488" gradientUnits="userSpaceOnUse" spreadMethod="pad" id="fill5" gradientTransform="matrix(0.000360892 0 0 0.000360892 2445 1871)"><stop offset="0" stop-color="#FFFFFF"/><stop offset="0.22" stop-color="#FFFF00"/><stop offset="0.54" stop-color="#FFC000"/><stop offset="1" stop-color="#FFC000"/></radialGradient><linearGradient x1="2745.8" y1="2286.88" x2="2494.08" y2="2066.88" gradientUnits="userSpaceOnUse" spreadMethod="reflect" id="fill6"><stop offset="0" stop-color="#FF5A00"/><stop offset="0.28" stop-color="#FF5A00"/><stop offset="0.8" stop-color="#FF1300"/><stop offset="1" stop-color="#FF1300"/></linearGradient></defs><g clip-path="url(#clip1)" transform="translate(-2230 -1604)"><g clip-path="url(#clip2)" filter="url(#fx0)" transform="matrix(6.01538 0 0 5.97902 2229 1603)"><g clip-path="url(#clip3)"><path d="M24.681 92.7065C24.5352 80.6463 35.4864 71.7217 35.4864 71.7217 35.4864 71.7217 44.2473 61.5913 27.6015 58.0937 10.9556 54.5966 45.7079 53.0287 48.4821 54.8377 51.2564 56.6467 40.3052 48.928 46.7302 35.1796 53.1546 21.4313 72.721 21.1901 81.1905 26.4962 89.6594 31.8028 78.7083 28.8831 76.7366 28.7274 72.2798 28.3764 65.4206 29.9939 74.6192 43.9834 78.0485 49.1983 83.8439 40.0693 83.8439 40.0693 83.8439 40.0693 90.0463 51.9027 93.4594 56.6381 96.6996 61.1329 102.855 75.919 105.575 85.3497 114.482 116.224 74.6192 118.997 74.6192 118.997 74.6192 118.997 64.5527 119.998 59.8484 119.565 55.1441 119.132 56.0254 119.302 54.034 118.818 50.2913 117.907 34.6411 111.536 33.2233 110.441 31.8056 109.346 24.8273 104.767 24.681 92.7065Z" fill="#FF0000" fill-rule="evenodd"/></g></g><path d="M2382.22 2154.81C2381.36 2084.11 2445.94 2031.8 2445.94 2031.8 2445.94 2031.8 2497.61 1972.42 2399.44 1951.91 2301.28 1931.41 2506.23 1922.22 2522.59 1932.83 2538.95 1943.43 2474.36 1898.19 2512.25 1817.6 2550.14 1737.01 2665.53 1735.59 2715.48 1766.7 2765.43 1797.8 2700.84 1780.69 2689.21 1779.77 2662.93 1777.72 2622.48 1787.2 2676.73 1869.2 2696.95 1899.77 2731.13 1846.26 2731.13 1846.26 2731.13 1846.26 2767.71 1915.62 2787.84 1943.38 2806.95 1969.73 2843.24 2056.4 2859.29 2111.68 2911.82 2292.66 2676.73 2308.92 2676.73 2308.92 2676.73 2308.92 2617.36 2314.78 2589.62 2312.25 2561.87 2309.7 2567.07 2310.7 2555.33 2307.86 2533.26 2302.53 2440.96 2265.18 2432.6 2258.76 2424.24 2252.35 2383.08 2225.5 2382.22 2154.81Z" fill="url(#fill4)" fill-rule="evenodd"/><path d="M2451.37 2179.93C2450.77 2123.79 2495.48 2082.25 2495.48 2082.25 2495.48 2082.25 2531.24 2035.1 2463.29 2018.82 2395.33 2002.54 2537.2 1995.24 2548.53 2003.66 2559.86 2012.08 2545.46 1981.57 2567.5 1916.2 2590.3 1848.57 2586.92 1865.3 2617.51 1909.97 2648.1 1954.64 2642.03 1959.79 2660.68 1961.41 2679.34 1963.03 2692.89 1934.92 2692.89 1934.92 2692.89 1934.92 2718.21 1990 2732.15 2012.04 2745.37 2032.96 2770.5 2101.79 2781.61 2145.68 2817.97 2289.39 2656.52 2301.5 2656.52 2301.5 2656.52 2301.5 2614.14 2304.14 2594.93 2302.12 2575.73 2300.1 2579.32 2303.72 2571.2 2301.46 2555.92 2297.23 2492.03 2267.57 2486.24 2262.47 2480.45 2257.38 2451.96 2236.06 2451.37 2179.93Z" fill="url(#fill5)" fill-rule="evenodd"/><path d="M2513.11 2232.82C2512.72 2201.04 2541.75 2177.52 2541.75 2177.52 2541.75 2177.52 2564.97 2150.82 2520.85 2141.61 2476.74 2132.39 2568.84 2128.26 2576.19 2133.02 2583.54 2137.79 2554.52 2117.45 2571.55 2081.22 2588.57 2044.99 2640.43 2044.36 2662.87 2058.34 2685.32 2072.32 2656.3 2064.63 2651.07 2064.22 2639.26 2063.29 2621.08 2067.56 2645.46 2104.42 2654.55 2118.17 2669.91 2094.11 2669.91 2094.11 2669.91 2094.11 2686.34 2125.29 2695.39 2137.77 2703.98 2149.61 2720.29 2188.58 2727.5 2213.43 2751.11 2294.79 2645.46 2302.1 2645.46 2302.1 2645.46 2302.1 2618.78 2304.74 2606.31 2303.6 2593.85 2302.45 2596.18 2302.9 2590.91 2301.62 2580.99 2299.23 2539.51 2282.44 2535.75 2279.55 2531.99 2276.67 2513.5 2264.6 2513.11 2232.82Z" fill="url(#fill6)" fill-rule="evenodd"/></g></svg>