<svg width="4418" height="852" xmlns="http://www.w3.org/2000/svg" xmlns:xlink="http://www.w3.org/1999/xlink" xml:space="preserve" overflow="hidden"><defs><clipPath id="clip0"><rect x="3" y="830" width="4418" height="852"/></clipPath><clipPath id="clip1"><rect x="3" y="830" width="4401" height="835"/></clipPath><clipPath id="clip2"><rect x="3" y="830" width="4401" height="835"/></clipPath><clipPath id="clip3"><rect x="3" y="830" width="4401" height="835"/></clipPath><clipPath id="clip4"><path d="M1048.37 975.93C1034.41 977.216 1019.96 978.76 1005.1 980.531 1015.73 994.935 1025.45 1009.86 1034.22 1025.24 1144.16 1013.87 1207.55 1018.97 1223.14 1030.02 1215.27 1046.43 1166.9 1079.19 1074.53 1119.82 1064.57 1124.2 1054.09 1128.67 1043.11 1133.22 1029.04 1139.05 1014.13 1145.02 998.358 1151.09 988.094 1155.04 977.461 1159.04 966.469 1163.08 965.275 1163.53 964.039 1163.97 962.835 1164.41 954.978 1158.5 945.243 1154.96 934.66 1154.96 912.834 1154.96 894.536 1169.86 889.254 1190.04 888.855 1191.56 888.533 1193.11 888.287 1194.69 888.205 1195.22 888.116 1195.74 888.048 1196.27 887.98 1196.84 887.918 1197.41 887.87 1197.99 887.752 1199.3 887.672 1200.62 887.672 1201.96 887.672 1203.61 887.758 1205.24 887.927 1206.85 887.965 1207.22 888.045 1207.57 888.092 1207.94 888.249 1209.18 888.42 1210.41 888.672 1211.62 888.743 1211.95 888.846 1212.27 888.923 1212.61 889.213 1213.83 889.515 1215.05 889.893 1216.24 889.967 1216.47 890.068 1216.69 890.144 1216.92 890.573 1218.2 891.034 1219.46 891.567 1220.68 891.623 1220.81 891.691 1220.93 891.744 1221.05 892.333 1222.37 892.971 1223.66 893.672 1224.91 893.696 1224.95 893.722 1224.99 893.743 1225.02 896.026 1229.06 898.888 1232.72 902.218 1235.91 910.658 1243.98 922.069 1248.96 934.663 1248.96 958.438 1248.96 978.04 1231.29 981.172 1208.37 990.221 1205.05 999.16 1201.73 1007.91 1198.41 1023.65 1192.42 1038.92 1186.42 1053.63 1180.42 1064.64 1175.93 1075.36 1171.44 1085.74 1166.96 1089.42 1165.37 1093.06 1163.78 1096.65 1162.2 1264.78 1088.08 1277.92 1046.05 1270.57 1017.72 1264.7 995.038 1243.05 971.067 1140.85 971.067 1115.36 971.067 1084.87 972.555 1048.37 975.93"/></clipPath><linearGradient x1="4381.64" y1="270.572" x2="110.89" y2="270.572" gradientUnits="userSpaceOnUse" spreadMethod="pad" id="fill5"><stop offset="0" stop-color="#54B0F9"/><stop offset="0.0054" stop-color="#54B0F9"/><stop offset="1" stop-color="#6BFFB1"/><stop offset="1" stop-color="#6BFFB1"/></linearGradient><clipPath id="clip6"><path d="M365.682 934.574C302.847 989.862 258.988 1061.04 237.998 1140.16 234.53 1153.24 231.685 1166.53 229.485 1180.01 216.985 1185.04 204.867 1190.07 193.154 1195.09 188.187 1197.22 183.269 1199.34 178.455 1201.47 10.3188 1275.58-2.81054 1317.62 4.53186 1345.95 10.4076 1368.64 32.006 1392.61 134.199 1392.61 156.324 1392.61 182.24 1391.48 212.573 1388.97 217.195 1388.59 221.903 1388.18 226.732 1387.74 233.456 1387.12 240.311 1386.43 247.251 1385.7 251.145 1396.81 255.528 1407.71 260.318 1418.39 321.728 1555.26 455.003 1654.63 614.821 1664.86 623.849 1665.44 632.817 1665.73 641.742 1665.73 859.911 1665.73 1044.03 1495.53 1058.16 1274.77 1059.43 1254.79 1059.28 1234.94 1057.77 1215.32 1042.66 1221.4 1027.02 1227.47 1010.88 1233.53 1011.35 1246.18 1011.21 1258.92 1010.38 1271.73 997.365 1475.17 821.375 1630.28 617.866 1617.09 530.311 1611.48 451.78 1575.63 391.724 1520.42 380.251 1509.88 369.458 1498.62 359.407 1486.74 359.212 1486.51 359.028 1486.27 358.836 1486.05L353.475 1479.52C336.761 1458.74 322.219 1436.18 310.272 1412.16 305.047 1401.65 300.319 1390.87 296.099 1379.86 307.392 1378.35 318.916 1376.72 330.634 1374.98 362.725 1370.2 396.34 1364.5 431.104 1357.97 455.733 1353.34 493.424 1345.96 520.937 1340.16 524.219 1330.25 524.896 1320.87 522.658 1312.36 520.869 1305.56 517.163 1299.19 511.811 1293.32 481.723 1299.68 444.828 1306.93 420.077 1311.58 382.454 1318.65 347.581 1324.45 315.604 1329.08 303.965 1330.76 292.701 1332.29 281.813 1333.68 264.961 1335.83 248.999 1337.64 233.953 1339.13 222.033 1340.31 210.66 1341.3 199.879 1342.1 115.064 1348.37 65.4918 1343.26 51.9514 1333.67 59.5126 1317.89 104.522 1287 190.047 1248.53 200.79 1243.7 212.171 1238.75 224.195 1233.7 223.763 1246.04 223.896 1258.28 224.535 1270.4 225.159 1282.27 226.259 1294.01 227.867 1305.62 242.316 1304.21 258.18 1302.47 275.47 1300.29 273.167 1284.11 271.937 1267.63 271.821 1250.91 271.759 1242.17 271.99 1233.36 272.552 1224.5 272.782 1220.95 273.075 1217.41 273.4 1213.87 275.104 1195.39 278.155 1177.23 282.49 1159.5 285.873 1145.66 290.034 1132.08 294.96 1118.82 315.964 1062.28 350.742 1011.47 397.296 970.514 465.361 910.621 551.096 878.367 640.943 878.367 648.954 878.367 657.006 878.627 665.073 879.142 744.858 884.243 819.163 914.271 879.182 964.874 889.943 973.945 900.234 983.699 910.025 994.068 913.068 997.292 916.081 1000.55 919.023 1003.9 928.297 1014.45 936.884 1025.43 944.815 1036.77 963.196 1033.98 980.708 1031.55 997.309 1029.47 987.938 1014.29 977.526 999.628 966.132 985.565 962.498 981.079 958.793 976.642 954.957 972.283 949.8 966.418 944.486 960.737 939.06 955.209 866.967 881.756 771.634 837.991 668.119 831.366 659.029 830.783 649.948 830.496 640.92 830.496 539.398 830.49 442.58 866.915 365.682 934.574"/></clipPath><linearGradient x1="4356.13" y1="418.425" x2="119.392" y2="418.425" gradientUnits="userSpaceOnUse" spreadMethod="pad" id="fill7"><stop offset="0" stop-color="#54B0F9"/><stop offset="0.0054" stop-color="#54B0F9"/><stop offset="1" stop-color="#6BFFB1"/><stop offset="1" stop-color="#6BFFB1"/></linearGradient><clipPath id="clip8"><path d="M689.531 1330.22C713.226 1311.48 725.569 1285.87 719.288 1262 713.01 1238.14 689.664 1221.91 659.815 1217.26 672.519 1207.21 688.475 1199.13 706.593 1194.37 758.51 1180.71 808.414 1199.36 818.054 1236.02 827.7 1272.68 793.43 1313.47 741.513 1327.14 729.987 1330.17 718.563 1331.6 707.655 1331.6 701.421 1331.6 695.353 1331.13 689.531 1330.22M530.929 1162.01C476.019 1176.46 426.76 1197.52 386.706 1222.06 474.265 1225.13 539.829 1254.57 552.932 1304.39 566.035 1354.21 523.441 1412.11 448.731 1457.87 495.671 1459.52 548.916 1453.61 603.823 1439.17 761.151 1397.77 872.375 1302.18 852.247 1225.64 838.384 1172.94 765.832 1143.02 670.623 1143.01 627.577 1143.01 579.912 1149.13 530.929 1162.01"/></clipPath><linearGradient x1="4364.63" y1="482.002" x2="119.392" y2="482.002" gradientUnits="userSpaceOnUse" spreadMethod="pad" id="fill9"><stop offset="0" stop-color="#54B0F9"/><stop offset="0.0054" stop-color="#54B0F9"/><stop offset="1" stop-color="#6BFFB1"/><stop offset="1" stop-color="#6BFFB1"/></linearGradient><clipPath id="clip10"><path d="M3260.27 1057.5C3237.47 1061.93 3219.43 1071.92 3215.44 1097.25 3212.4 1116.7 3217.78 1133.61 3234.4 1144.88 3253.47 1157.8 3274.43 1157.99 3294.81 1148.19 3323.67 1134.31 3329.41 1095.47 3306.84 1072.74 3296.76 1062.57 3283.9 1059.83 3270.68 1057.5L3260.27 1057.5Z"/></clipPath><linearGradient x1="4343.19" y1="270.572" x2="174.837" y2="270.572" gradientUnits="userSpaceOnUse" spreadMethod="pad" id="fill11"><stop offset="0" stop-color="#54B0F9"/><stop offset="0.0054" stop-color="#54B0F9"/><stop offset="1" stop-color="#6BFFB1"/><stop offset="1" stop-color="#6BFFB1"/></linearGradient><clipPath id="clip12"><path d="M3460.38 1387.8C3452.07 1352.47 3455.2 1318.92 3479.33 1290.1 3501.48 1263.63 3531.05 1256.71 3563.81 1263.4 3596.9 1270.16 3618.25 1291.35 3628.01 1322.86 3640.9 1364.48 3633.6 1402.19 3600.92 1433 3586.29 1446.81 3566.27 1453.61 3543.79 1453.7 3543.65 1453.7 3543.53 1453.7 3543.41 1453.7 3502.54 1453.7 3469.75 1427.82 3460.38 1387.8M3415.34 1239.21C3382.01 1277.42 3369.33 1321.68 3373.11 1372.03 3376.93 1422.68 3396.53 1464.22 3437.25 1495.29 3487.94 1533.98 3564.08 1534.48 3612.75 1496.28 3619.64 1490.86 3625.65 1484.33 3633.6 1476.88 3633.6 1487.17 3633.87 1495.31 3633.57 1503.42 3631.2 1564.28 3589.3 1599.51 3528.71 1593.75 3503.16 1591.33 3479.63 1584.66 3456.97 1573.29 3448.96 1569.27 3440.36 1564.61 3431.04 1569.37 3415.66 1577.23 3410.08 1591.58 3407.65 1607.38 3405.37 1622.4 3414.9 1629.82 3426.81 1636.18 3479.18 1664.1 3535.07 1668.98 3591.99 1658.23 3671.3 1643.25 3713.47 1588.55 3715.33 1516.29 3717.79 1419.66 3715.98 1322.92 3715.9 1226.23 3715.87 1207.82 3706.85 1198.34 3688.48 1196.84 3685.59 1196.61 3682.66 1196.65 3679.76 1196.68 3677.45 1196.71 3675.18 1196.74 3672.9 1196.63 3646.52 1195.43 3629.49 1204.38 3633.54 1233.52 3633.69 1234.62 3632.98 1235.84 3632.65 1237.07 3631.62 1236.75 3630.58 1236.76 3630.17 1236.25 3605.69 1205.06 3567.33 1190.25 3528.15 1190.25 3486.19 1190.25 3443.25 1207.22 3415.34 1239.21"/></clipPath><linearGradient x1="4364.63" y1="600.285" x2="119.392" y2="600.285" gradientUnits="userSpaceOnUse" spreadMethod="pad" id="fill13"><stop offset="0" stop-color="#54B0F9"/><stop offset="0.0054" stop-color="#54B0F9"/><stop offset="1" stop-color="#6BFFB1"/><stop offset="1" stop-color="#6BFFB1"/></linearGradient><clipPath id="clip14"><path d="M2898.76 1101.43C2839.51 1143.66 2833.13 1231.82 2887.5 1280.19 2912.42 1302.36 2942.42 1313.92 2972.96 1325.13 2996.85 1333.91 3022.14 1339.39 3044.23 1352.62 3062.97 1363.84 3077.38 1378.94 3074.51 1402.69 3071.61 1426.54 3055.11 1439.73 3033.34 1446.06 2989.52 1458.82 2938.62 1449.88 2911.96 1406.65 2902.26 1390.91 2893.36 1387.9 2875.59 1391.84 2867.59 1393.62 2859.62 1395.79 2851.93 1398.61 2836.34 1404.32 2830.84 1416.08 2836.74 1431.46 2842.51 1446.52 2851.41 1459.8 2862.42 1471.58 2899.26 1511 2946.95 1522.86 2996.09 1524.88 3034.53 1523.93 3068.95 1517.46 3100.53 1499.19 3166.03 1461.29 3180.02 1373.81 3129.33 1317.75 3109.7 1296.02 3084.62 1282.85 3057.74 1272.35 3025.98 1259.93 2992.51 1251.7 2962.52 1234.86 2945.13 1225.09 2933.82 1210.93 2936.44 1189.66 2939.04 1168.47 2952.1 1155.07 2971.96 1149.47 3004.28 1140.37 3048.69 1143.48 3067.47 1180.5 3075.25 1195.8 3085.74 1198.39 3102.69 1194.25 3109.4 1192.62 3116.08 1190.81 3122.65 1188.61 3141.25 1182.37 3146.81 1170.63 3139.33 1152.41 3131.82 1134.14 3119.9 1119 3104.94 1106.03 3078.5 1083.13 3039.64 1071.27 3000.05 1071.27 2963.97 1071.27 2927.27 1081.12 2898.76 1101.43"/></clipPath><linearGradient x1="4356.13" y1="477.567" x2="136.764" y2="477.567" gradientUnits="userSpaceOnUse" spreadMethod="pad" id="fill15"><stop offset="0" stop-color="#54B0F9"/><stop offset="0.0054" stop-color="#54B0F9"/><stop offset="1" stop-color="#6BFFB1"/><stop offset="1" stop-color="#6BFFB1"/></linearGradient><clipPath id="clip16"><path d="M3814.57 1066.15C3807 1067.62 3802.27 1073.48 3799.79 1081.12 3797.63 1087.86 3797.39 1094.65 3797.39 1101.57 3797.42 1227.62 3797.42 1353.66 3797.42 1479.71 3797.42 1483.59 3797.27 1487.51 3797.72 1491.36 3799.64 1508.57 3808.48 1516.51 3826.02 1516.85 3834.24 1517.01 3842.49 1516.93 3850.71 1516.88 3873.12 1516.73 3882.17 1507.83 3882.23 1485.48 3882.32 1443.61 3881.43 1401.71 3882.53 1359.87 3883.35 1328.11 3890.69 1298.39 3918.13 1277.32 3958.67 1246.16 4004.42 1263.3 4013.88 1313.23 4016.63 1327.87 4015.86 1342.47 4015.92 1357.09 4016.13 1399.83 4015.8 1442.57 4016.1 1485.3 4016.27 1507.85 4025.62 1516.74 4047.8 1516.89 4055.16 1516.94 4062.52 1516.94 4069.89 1516.88 4091.68 1516.71 4100.58 1507.97 4100.64 1486.19 4100.73 1438.28 4100.67 1390.36 4100.67 1342.44 4100.7 1327.34 4100.85 1312.29 4098.04 1297.31 4092.45 1267.53 4082.63 1240.33 4059.89 1218.4 4018.2 1178.21 3920.02 1177.4 3882.23 1243.6 3882.23 1191.47 3882.17 1142.27 3882.29 1093.07 3882.32 1080.72 3878.53 1070.04 3865.97 1066.6 3857.78 1064.35 3849.44 1063.41 3841.07 1063.41 3832.23 1063.41 3823.36 1064.46 3814.57 1066.15"/></clipPath><linearGradient x1="4364.63" y1="447.996" x2="119.392" y2="447.996" gradientUnits="userSpaceOnUse" spreadMethod="pad" id="fill17"><stop offset="0" stop-color="#54B0F9"/><stop offset="0.0054" stop-color="#54B0F9"/><stop offset="1" stop-color="#6BFFB1"/><stop offset="1" stop-color="#6BFFB1"/></linearGradient><clipPath id="clip18"><path d="M4231.37 1111.12C4218.98 1111.75 4210.67 1117.21 4208.1 1129.51 4205.2 1143.42 4202.98 1157.46 4200.41 1171.43 4195.74 1197.05 4199.49 1196.84 4180.95 1196.63 4178.32 1196.6 4175.28 1196.56 4171.67 1196.61 4147.21 1196.9 4143.1 1200.83 4143.04 1225.25 4142.96 1261.89 4142.96 1262.19 4179.15 1262.51 4189.14 1262.6 4192.99 1265.6 4192.72 1275.9 4192.19 1300.93 4192.55 1325.98 4192.55 1351.01L4192.87 1351.01C4192.87 1376.05 4192.22 1401.11 4193.02 1426.12 4194.56 1474.83 4221.52 1508.99 4266.89 1520.6 4289.54 1526.4 4312.19 1525.71 4334.9 1520.03 4384.96 1507.53 4413.23 1459.79 4399.57 1410.54 4397.06 1401.47 4391.97 1396.19 4382.33 1396.1 4375.23 1396.03 4368.17 1396.04 4361.1 1396.05 4356.9 1396.06 4352.73 1396.07 4348.53 1396.05 4338.62 1396.03 4334.46 1401.23 4334.9 1410.74 4335.08 1415.05 4335.46 1419.39 4335.19 1423.68 4334.04 1442.25 4320.7 1454.17 4302.64 1453.01 4287.85 1452.06 4277.35 1441.11 4277.03 1422.54 4276.2 1372.91 4276.56 1323.26 4276.29 1273.62 4276.23 1264.96 4280.64 1262.56 4288.5 1262.64 4308.85 1262.86 4329.22 1262.93 4349.57 1262.56 4363.4 1262.3 4367.99 1257.32 4368.25 1243.51 4368.43 1235.31 4368.34 1227.1 4368.28 1218.9 4368.17 1201.57 4363.46 1196.84 4345.75 1196.7 4326.26 1196.54 4306.78 1196.35 4287.29 1196.79 4279.1 1196.97 4275.43 1194.88 4276.05 1185.93 4276.82 1175.19 4276.26 1164.36 4276.26 1153.56 4276.29 1118.23 4273.07 1110.69 4245.42 1110.69 4241.31 1110.69 4236.64 1110.86 4231.37 1111.12"/></clipPath><linearGradient x1="4360.57" y1="486.068" x2="149.332" y2="486.068" gradientUnits="userSpaceOnUse" spreadMethod="pad" id="fill19"><stop offset="0" stop-color="#54B0F9"/><stop offset="0.0054" stop-color="#54B0F9"/><stop offset="1" stop-color="#6BFFB1"/><stop offset="1" stop-color="#6BFFB1"/></linearGradient><clipPath id="clip20"><path d="M3251.87 1197.3C3233.12 1199.42 3225.7 1208.57 3225.67 1227.66 3225.58 1269.09 3225.64 1310.51 3225.64 1351.93 3225.64 1396.38 3225.61 1440.83 3225.64 1485.27 3225.67 1508.79 3233.89 1516.79 3257.88 1516.89 3263.08 1516.91 3268.28 1516.9 3273.46 1516.89 3302.29 1516.87 3310.3 1508.96 3310.39 1479.92 3310.51 1439.36 3310.42 1398.8 3310.42 1358.23 3310.42 1316.38 3310.57 1274.52 3310.33 1232.67 3310.24 1210.46 3302.2 1199.23 3284.25 1197.25 3278.99 1196.67 3273.64 1196.38 3268.28 1196.38 3262.78 1196.38 3257.28 1196.69 3251.87 1197.3"/></clipPath><linearGradient x1="4360.57" y1="507.137" x2="115.326" y2="507.137" gradientUnits="userSpaceOnUse" spreadMethod="pad" id="fill21"><stop offset="0" stop-color="#54B0F9"/><stop offset="0.0054" stop-color="#54B0F9"/><stop offset="1" stop-color="#6BFFB1"/><stop offset="1" stop-color="#6BFFB1"/></linearGradient><clipPath id="clip22"><path d="M2081.49 1339.63C2080.94 1267.21 2131.5 1214.96 2198.98 1217.2 2270.25 1219.57 2315.86 1270.5 2316.11 1340.03 2316.37 1411.19 2265.19 1461.01 2196 1460.2 2195.47 1460.21 2194.96 1460.21 2194.44 1460.21 2123.89 1460.21 2082 1405.78 2081.49 1339.63M2089.6 1202.88C2034.91 1248.12 2019.17 1308.61 2031.47 1375.91 2053.24 1495 2174.91 1536.46 2262.58 1492.95 2282.57 1483.02 2298 1467.71 2313.84 1448.7 2314.5 1461.78 2314.37 1472.35 2315.71 1482.72 2317.92 1499.8 2324.86 1503.32 2350.19 1501.65 2363.42 1500.78 2369.33 1494.47 2369.36 1479.32 2369.52 1385.77 2369.52 1292.23 2369.36 1198.69 2369.33 1183.12 2362.14 1176.45 2345.98 1175.4 2326.68 1174.15 2317.84 1179.74 2315.79 1195.79 2314.45 1206.29 2314.58 1216.97 2313.92 1230.25 2280.29 1186.74 2233.72 1168.74 2189.19 1168.74 2151.49 1168.75 2115.25 1181.65 2089.6 1202.88"/></clipPath><linearGradient x1="4360.57" y1="524.14" x2="115.326" y2="524.14" gradientUnits="userSpaceOnUse" spreadMethod="pad" id="fill23"><stop offset="0" stop-color="#54B0F9"/><stop offset="0.0054" stop-color="#54B0F9"/><stop offset="1" stop-color="#6BFFB1"/><stop offset="1" stop-color="#6BFFB1"/></linearGradient><clipPath id="clip24"><path d="M1706.92 1287.83C1721.23 1248.71 1768.63 1218.06 1817.23 1216.96 1865.38 1215.88 1904.23 1240.55 1921.22 1282.99 1927.04 1297.53 1926.48 1298.37 1910.24 1298.4 1878.4 1298.44 1846.57 1298.41 1814.73 1298.41 1781.55 1298.4 1748.37 1298.25 1715.19 1298.51 1715.04 1298.52 1714.89 1298.52 1714.75 1298.52 1706.76 1298.52 1703.68 1296.69 1706.92 1287.83M1678.09 1235.69C1616.48 1314.3 1637.45 1432.05 1722.87 1482.48 1767.55 1508.87 1816.3 1515.09 1867.11 1505.62 1898.13 1499.84 1926.38 1487.69 1949.97 1466.44 1963.05 1454.65 1962.43 1444.02 1949.45 1432.34 1938.6 1422.57 1932.22 1422.37 1915.76 1433.41 1877.01 1459.4 1834.5 1466.2 1789.67 1456.46 1736.74 1444.96 1699.59 1402.69 1697.78 1355.72 1697.32 1343.94 1700.94 1340.09 1712.89 1340.27 1754.21 1340.87 1795.54 1340.5 1836.86 1340.49 1849.26 1340.49 1861.65 1340.49 1874.05 1340.5 1902.98 1340.52 1931.91 1340.54 1960.84 1340.42 1975.35 1340.36 1981.87 1334.75 1980.89 1321.41 1977.49 1274.94 1961.6 1233.62 1923.81 1204.3 1892.56 1180.06 1855.12 1168.4 1817.81 1168.4 1765.08 1168.4 1712.58 1191.69 1678.09 1235.69"/></clipPath><linearGradient x1="4351.7" y1="511.573" x2="128.263" y2="511.573" gradientUnits="userSpaceOnUse" spreadMethod="pad" id="fill25"><stop offset="0" stop-color="#54B0F9"/><stop offset="0.0054" stop-color="#54B0F9"/><stop offset="1" stop-color="#6BFFB1"/><stop offset="1" stop-color="#6BFFB1"/></linearGradient><clipPath id="clip26"><path d="M2523.18 1232.63C2523.18 1219.47 2523.35 1209.67 2523.14 1199.88 2522.79 1182.49 2514.89 1175.22 2496.84 1175.36 2478.13 1175.51 2470.06 1182.33 2470.04 1199.37 2469.88 1292.48 2469.89 1385.59 2470.01 1478.69 2470.04 1496.47 2475.62 1501.53 2493.66 1501.69 2516.9 1501.91 2522.91 1497.63 2523.06 1478.82 2523.39 1436.29 2523.23 1393.77 2523.18 1351.24 2523.16 1338.71 2523.4 1326.26 2525.8 1313.86 2533.6 1273.6 2553.25 1242.39 2592.36 1225.69 2644.84 1203.27 2692.52 1226.31 2705.88 1280.91 2708.62 1292.15 2710 1303.7 2709.96 1315.44 2709.77 1369.6 2709.92 1423.76 2709.86 1477.92 2709.85 1487.89 2711.28 1497.17 2722.21 1500.82 2748.57 1509.62 2764.3 1499.37 2764.34 1472.13 2764.42 1413.06 2766.71 1353.93 2762.68 1294.95 2759.82 1253.32 2746.49 1216.02 2710.01 1190.92 2689.91 1177.09 2663.17 1169 2635.49 1169 2593.63 1169.01 2549.62 1187.51 2523.18 1232.63"/></clipPath><linearGradient x1="4364.63" y1="511.573" x2="119.392" y2="511.573" gradientUnits="userSpaceOnUse" spreadMethod="pad" id="fill27"><stop offset="0" stop-color="#54B0F9"/><stop offset="0.0054" stop-color="#54B0F9"/><stop offset="1" stop-color="#6BFFB1"/><stop offset="1" stop-color="#6BFFB1"/></linearGradient><clipPath id="clip28"><path d="M1370.57 1048.58C1359.08 1052.79 1359.7 1063.68 1359.71 1073.68 1359.73 1140.35 1359.72 1207.02 1359.72 1273.69 1359.73 1341.69 1359.66 1409.7 1359.77 1477.71 1359.79 1496.47 1365.06 1501.56 1383.76 1501.68 1399.02 1501.77 1414.28 1501.7 1429.55 1501.7 1487.9 1501.69 1546.25 1501.62 1604.61 1501.75 1615.13 1501.78 1622.86 1499.03 1625.72 1487.61 1630.86 1467.12 1623.22 1456.84 1601.91 1456.81 1565.1 1456.76 1528.29 1456.77 1491.48 1456.78 1473.08 1456.78 1454.68 1456.78 1436.27 1456.78 1415.34 1456.77 1415.32 1456.76 1415.31 1436.52 1415.3 1364.93 1415.31 1293.35 1415.31 1221.76 1415.31 1171.64 1415.27 1121.53 1415.33 1071.42 1415.34 1063.11 1414.96 1054.57 1407 1050.02 1401.02 1046.61 1394.73 1045.17 1388.39 1045.17 1382.4 1045.17 1376.39 1046.45 1370.57 1048.58"/></clipPath><linearGradient x1="4364.63" y1="447.996" x2="119.392" y2="447.996" gradientUnits="userSpaceOnUse" spreadMethod="pad" id="fill29"><stop offset="0" stop-color="#54B0F9"/><stop offset="0.0054" stop-color="#54B0F9"/><stop offset="1" stop-color="#6BFFB1"/><stop offset="1" stop-color="#6BFFB1"/></linearGradient></defs><g clip-path="url(#clip0)" transform="translate(-3 -830)"><path d="M1285.46 1032.84C1278.12 1004.38 1246.12 973.919 1062.94 990.881 1048.96 992.172 1034.49 993.724 1019.61 995.501 1030.26 1009.96 1039.99 1024.95 1048.77 1040.39 1158.87 1028.97 1222.37 1034.1 1237.97 1045.18 1230.09 1061.66 1181.65 1094.55 1089.14 1135.34 1079.17 1139.75 1068.67 1144.23 1057.68 1148.8 1043.59 1154.65 1028.65 1160.64 1012.86 1166.74 1002.58 1170.71 991.927 1174.72 980.92 1178.78 979.724 1179.22 978.488 1179.67 977.285 1180.11 969.417 1174.18 959.669 1170.62 949.065 1170.62 927.205 1170.62 908.883 1185.59 903.59 1205.84 903.19 1207.37 902.865 1208.93 902.624 1210.52 902.537 1211.04 902.449 1211.56 902.384 1212.09 902.312 1212.67 902.253 1213.25 902.201 1213.82 902.088 1215.14 902 1216.46 902 1217.81 902 1219.47 902.091 1221.11 902.257 1222.72 902.296 1223.09 902.377 1223.45 902.423 1223.82 902.582 1225.06 902.754 1226.3 903.005 1227.51 903.076 1227.85 903.184 1228.16 903.258 1228.5 903.544 1229.73 903.85 1230.96 904.227 1232.15 904.302 1232.38 904.403 1232.6 904.477 1232.84 904.907 1234.12 905.372 1235.38 905.905 1236.61 905.961 1236.74 906.026 1236.85 906.084 1236.98 906.669 1238.3 907.31 1239.6 908.012 1240.85 908.035 1240.89 908.064 1240.92 908.083 1240.97 910.369 1245.02 913.237 1248.69 916.567 1251.89 925.021 1259.99 936.446 1265 949.062 1265 972.873 1265 992.502 1247.26 995.637 1224.25 1004.7 1220.92 1013.65 1217.59 1022.41 1214.25 1038.18 1208.24 1053.47 1202.21 1068.2 1196.19 1079.23 1191.68 1089.96 1187.17 1100.36 1182.67 1104.04 1181.08 1107.69 1179.49 1111.29 1177.89 1279.67 1103.48 1292.82 1061.28 1285.46 1032.84" fill="#A6A6A6" fill-rule="evenodd"/><path d="M367.804 1495.62C351.078 1474.83 336.519 1452.24 324.564 1428.2 319.335 1417.69 314.597 1406.89 310.372 1395.87 321.681 1394.37 333.215 1392.74 344.943 1390.99 377.069 1386.21 410.71 1380.5 445.505 1373.96 470.16 1369.33 507.886 1361.94 535.424 1356.14 538.709 1346.22 539.385 1336.83 537.146 1328.31 535.355 1321.51 531.648 1315.13 526.289 1309.26 496.168 1315.63 459.241 1322.88 434.469 1327.53 396.808 1334.61 361.906 1340.42 329.893 1345.05 318.243 1346.74 306.97 1348.27 296.074 1349.66 279.208 1351.81 263.232 1353.63 248.17 1355.12 236.237 1356.3 224.857 1357.29 214.064 1358.08 129.172 1364.36 79.5496 1359.24 65.9982 1349.64 73.5633 1333.85 118.617 1302.93 204.221 1264.43 214.977 1259.59 226.364 1254.64 238.404 1249.58 237.972 1261.94 238.102 1274.19 238.743 1286.32 239.37 1298.19 240.468 1309.96 242.08 1321.57 256.541 1320.17 272.423 1318.41 289.727 1316.24 287.423 1300.04 286.185 1283.54 286.074 1266.81 286.009 1258.06 286.24 1249.25 286.809 1240.38 287.036 1236.82 287.329 1233.27 287.654 1229.73 289.36 1211.24 292.415 1193.07 296.753 1175.32 300.142 1161.47 304.305 1147.88 309.238 1134.6 330.264 1078.01 365.075 1027.15 411.669 986.157 479.802 926.207 565.614 893.923 655.546 893.923 663.566 893.923 671.622 894.18 679.701 894.693 759.556 899.803 833.938 929.857 894.005 980.505 904.778 989.589 915.076 999.347 924.877 1009.73 927.926 1012.96 930.938 1016.23 933.886 1019.57 943.164 1030.12 951.762 1041.11 959.701 1052.46 978.095 1049.68 995.627 1047.25 1012.24 1045.16 1002.86 1029.96 992.439 1015.3 981.036 1001.22 977.399 996.727 973.688 992.284 969.854 987.922 964.686 982.049 959.37 976.364 953.94 970.829 881.78 897.313 786.359 853.503 682.746 846.87 571.317 839.758 463.84 876.434 380.023 950.178 317.129 1005.52 273.225 1076.76 252.216 1155.96 248.745 1169.05 245.898 1182.35 243.695 1195.84 231.184 1200.88 219.056 1205.91 207.331 1210.93 202.362 1213.06 197.439 1215.2 192.62 1217.32 24.3239 1291.5 11.1821 1333.58 18.5329 1361.94 24.4149 1384.64 46.0321 1408.64 148.319 1408.64 170.463 1408.64 196.405 1407.5 226.77 1404.99 231.395 1404.62 236.107 1404.21 240.939 1403.76 247.669 1403.14 254.533 1402.45 261.477 1401.71 265.374 1412.84 269.761 1423.75 274.558 1434.44 336.019 1571.44 469.422 1670.9 629.385 1681.14 638.423 1681.72 647.395 1682 656.332 1682 874.702 1682 1059 1511.65 1073.13 1290.68 1074.42 1270.69 1074.26 1250.81 1072.76 1231.18 1057.63 1237.26 1041.96 1243.34 1025.82 1249.4 1026.29 1262.06 1026.14 1274.81 1025.32 1287.63 1012.29 1491.27 836.141 1646.52 632.44 1633.32 544.799 1627.72 466.199 1591.83 406.086 1536.56 394.604 1526.01 383.803 1514.75 373.738 1502.85 373.543 1502.62 373.361 1502.38 373.166 1502.16" fill="#A6A6A6" fill-rule="evenodd"/><path d="M866.646 1241.59C846.512 1165.09 702.62 1136.62 545.257 1177.99 490.336 1192.43 441.064 1213.48 401 1238.01 488.58 1241.08 554.158 1270.51 567.264 1320.31 580.371 1370.11 537.768 1427.98 463.036 1473.73 509.987 1475.38 563.244 1469.47 618.167 1455.03 775.53 1413.65 886.78 1318.09 866.646 1241.59M755.893 1343.04C737.77 1347.81 719.899 1348.63 703.889 1346.13 727.595 1327.4 739.939 1301.79 733.658 1277.93 727.378 1254.08 704.029 1237.86 674.172 1233.21 686.879 1223.17 702.844 1215.09 720.964 1210.33 772.887 1196.67 822.803 1215.31 832.451 1251.96 842.093 1288.61 807.816 1329.39 755.893 1343.04" fill="#A6A6A6" fill-rule="evenodd"/><path d="M3287.54 1073C3300.88 1075.34 3313.88 1078.1 3324.04 1088.3 3346.81 1111.13 3341.01 1150.13 3311.88 1164.06 3291.34 1173.89 3270.21 1173.71 3250.94 1160.73 3234.15 1149.42 3228.74 1132.44 3231.82 1112.9 3235.85 1087.48 3254.03 1077.45 3277.06 1073L3287.54 1073Z" fill="#A6A6A6" fill-rule="evenodd"/><path d="M3649.85 1252.79C3650.18 1251.56 3650.86 1250.34 3650.73 1249.24 3646.63 1220.11 3663.72 1211.17 3690.18 1212.37 3695.35 1212.61 3700.59 1212.16 3705.77 1212.58 3724.19 1214.08 3733.27 1223.55 3733.27 1241.96 3733.37 1338.59 3735.19 1435.28 3732.68 1531.85 3730.83 1604.08 3688.55 1658.75 3609.07 1673.73 3552.02 1684.47 3495.98 1679.59 3443.48 1651.69 3431.54 1645.32 3422 1637.91 3424.28 1622.9 3426.69 1607.11 3432.32 1592.77 3447.75 1584.9 3457.05 1580.16 3465.68 1584.81 3473.72 1588.83 3496.43 1600.19 3520.03 1606.86 3545.61 1609.28 3606.37 1615.03 3648.36 1579.82 3650.73 1519 3651.06 1510.89 3650.8 1502.76 3650.8 1492.48 3642.82 1499.93 3636.77 1506.45 3629.87 1511.86 3581.09 1550.04 3504.73 1549.54 3453.93 1510.88 3413.12 1479.83 3393.46 1438.31 3389.65 1387.68 3385.84 1337.36 3398.57 1293.12 3431.99 1254.94 3486.12 1193.08 3596.54 1187.43 3647.35 1251.98 3647.74 1252.47 3648.81 1252.46 3649.85 1252.79M3560.74 1469.3C3583.3 1469.22 3603.35 1462.42 3617.99 1448.62 3650.77 1417.82 3658.09 1380.13 3645.17 1338.53 3635.4 1307.04 3613.99 1285.86 3580.83 1279.1 3547.95 1272.41 3518.34 1279.33 3496.14 1305.8 3471.96 1334.59 3468.8 1368.13 3477.13 1403.43 3486.54 1443.56 3519.57 1469.45 3560.74 1469.3" fill="#A6A6A6" fill-rule="evenodd"/><path d="M3012.88 1541C2963.68 1538.97 2915.92 1527.11 2879.03 1487.65 2868 1475.86 2859.09 1462.56 2853.31 1447.49 2847.41 1432.12 2852.91 1420.34 2868.53 1414.62 2876.22 1411.81 2884.21 1409.63 2892.22 1407.85 2910.01 1403.91 2918.92 1406.92 2928.64 1422.67 2955.33 1465.94 3006.29 1474.89 3050.2 1462.12 3071.98 1455.79 3088.52 1442.58 3091.41 1418.72 3094.28 1394.95 3079.85 1379.83 3061.09 1368.59 3038.97 1355.35 3013.66 1349.86 2989.73 1341.08 2959.15 1329.86 2929.1 1318.29 2904.16 1296.11 2849.71 1247.69 2856.1 1159.45 2915.43 1117.19 2975.31 1074.53 3071.28 1077.99 3121.89 1121.8 3136.88 1134.77 3148.8 1149.92 3156.32 1168.22 3163.81 1186.45 3158.25 1198.21 3139.62 1204.45 3133.05 1206.65 3126.35 1208.45 3119.63 1210.09 3102.68 1214.23 3092.16 1211.64 3084.38 1196.32 3065.58 1159.28 3021.09 1156.17 2988.74 1165.27 2968.84 1170.88 2955.77 1184.29 2953.16 1205.5 2950.54 1226.78 2961.87 1240.95 2979.3 1250.74 3009.31 1267.59 3042.82 1275.83 3074.64 1288.26 3101.55 1298.76 3126.67 1311.95 3146.34 1333.7 3197.07 1389.8 3183.08 1477.36 3117.48 1515.29 3085.85 1533.57 3051.38 1540.05 3012.88 1541" fill="#A6A6A6" fill-rule="evenodd"/><path d="M3899.76 1259.38C3937.55 1193.1 4035.59 1193.92 4077.23 1234.15 4099.96 1256.1 4109.76 1283.32 4115.34 1313.14 4118.12 1328.13 4118 1343.2 4118 1358.32 4117.96 1406.28 4118.06 1454.24 4117.93 1502.21 4117.9 1524.01 4109.01 1532.76 4087.22 1532.93 4079.86 1532.99 4072.49 1532.99 4065.16 1532.94 4042.98 1532.79 4033.67 1523.89 4033.48 1501.31 4033.19 1458.54 4033.54 1415.76 4033.32 1372.98 4033.25 1358.34 4034.03 1343.73 4031.24 1329.08 4021.8 1279.09 3976.14 1261.95 3935.63 1293.13 3908.23 1314.22 3900.9 1343.97 3900.05 1375.76 3898.98 1417.65 3899.86 1459.58 3899.73 1501.49 3899.67 1523.88 3890.65 1532.79 3868.27 1532.93 3860.07 1532.99 3851.83 1533.07 3843.62 1532.9 3826.08 1532.56 3817.26 1524.61 3815.31 1507.38 3814.89 1503.53 3815.02 1499.61 3815.02 1495.72 3815.02 1369.55 3815.02 1243.38 3815.02 1117.2 3815.02 1110.27 3815.25 1103.48 3817.39 1096.73 3819.85 1089.08 3824.62 1083.21 3832.18 1081.75 3849.2 1078.45 3866.68 1077.57 3883.51 1082.19 3896.03 1085.64 3899.83 1096.33 3899.8 1108.69 3899.73 1157.94 3899.76 1207.2 3899.76 1259.38" fill="#A6A6A6" fill-rule="evenodd"/><path d="M4210.53 1366.35C4210.53 1341.31 4210.14 1316.26 4210.69 1291.23 4210.92 1280.92 4207.12 1277.93 4197.09 1277.84 4160.91 1277.52 4160.91 1277.21 4161.01 1240.57 4161.07 1216.15 4165.2 1212.22 4189.62 1211.93 4218.71 1211.58 4213.03 1216 4218.39 1186.75 4220.95 1172.77 4223.19 1158.73 4226.08 1144.83 4228.62 1132.52 4236.96 1127.07 4249.33 1126.44 4290.02 1124.37 4294.27 1128.27 4294.27 1168.88 4294.27 1179.67 4294.82 1190.51 4294.04 1201.25 4293.4 1210.2 4297.1 1212.29 4305.28 1212.11 4324.76 1211.68 4344.28 1211.86 4363.76 1212.02 4381.46 1212.17 4386.17 1216.9 4386.3 1234.22 4386.36 1242.43 4386.43 1250.64 4386.26 1258.83 4385.97 1272.65 4381.43 1277.63 4367.56 1277.88 4347.2 1278.26 4326.84 1278.19 4306.48 1277.97 4298.62 1277.89 4294.21 1280.29 4294.27 1288.95 4294.56 1338.6 4294.17 1388.25 4295.02 1437.89 4295.34 1456.46 4305.83 1467.42 4320.64 1468.36 4338.69 1469.51 4352.04 1457.6 4353.18 1439.03 4353.44 1434.74 4353.08 1430.4 4352.88 1426.09 4352.46 1416.57 4356.62 1411.39 4366.52 1411.41 4377.79 1411.43 4389.06 1411.34 4400.32 1411.45 4409.97 1411.54 4415.03 1416.82 4417.57 1425.89 4431.24 1475.15 4402.95 1522.89 4352.88 1535.4 4330.15 1541.08 4307.52 1541.77 4284.86 1535.97 4239.49 1524.37 4212.51 1490.19 4210.98 1441.48 4210.17 1416.46 4210.85 1391.4 4210.85 1366.36L4210.53 1366.35 4210.53 1366.35Z" fill="#A6A6A6" fill-rule="evenodd"/><path d="M3326.94 1374.09C3326.94 1414.72 3327.04 1455.34 3326.91 1495.97 3326.85 1525.04 3318.78 1532.97 3289.93 1532.99 3284.73 1533 3279.53 1533.01 3274.32 1532.99 3250.29 1532.89 3242.06 1524.88 3242.03 1501.32 3241.98 1456.81 3242.02 1412.3 3242.02 1367.79 3242.02 1326.3 3241.96 1284.81 3242.05 1243.33 3242.09 1224.21 3249.53 1215.05 3268.27 1212.92 3278.97 1211.71 3290.03 1211.69 3300.73 1212.87 3318.72 1214.86 3326.75 1226.1 3326.88 1248.34 3327.11 1290.26 3326.94 1332.18 3326.94 1374.09" fill="#A6A6A6" fill-rule="evenodd"/><path d="M2329.43 1245.68C2330.09 1232.37 2329.96 1221.65 2331.3 1211.13 2333.35 1195.03 2342.19 1189.42 2361.5 1190.68 2377.66 1191.73 2384.86 1198.43 2384.88 1214.04 2385.04 1307.84 2385.04 1401.64 2384.88 1495.44 2384.85 1510.65 2378.95 1516.97 2365.71 1517.84 2340.37 1519.52 2333.44 1515.99 2331.23 1498.86 2329.88 1488.46 2330.02 1477.87 2329.35 1464.74 2313.52 1483.81 2298.08 1499.16 2278.08 1509.11 2190.4 1552.75 2068.71 1511.18 2046.94 1391.75 2034.64 1324.25 2050.37 1263.6 2105.07 1218.23 2161.05 1171.79 2267.32 1165.09 2329.43 1245.68M2211.49 1476.27C2280.7 1477.09 2331.88 1427.13 2331.62 1355.77 2331.37 1286.05 2285.75 1234.97 2214.47 1232.59 2146.98 1230.34 2096.41 1282.74 2096.96 1355.37 2097.47 1422.18 2139.98 1477.09 2211.49 1476.27" fill="#A6A6A6" fill-rule="evenodd"/><path d="M1852.61 1356.4C1811.21 1356.41 1769.8 1356.79 1728.41 1356.17 1716.43 1356 1712.81 1359.86 1713.27 1371.66 1715.09 1418.72 1752.3 1461.05 1805.33 1472.58 1850.24 1482.34 1892.83 1475.52 1931.65 1449.49 1948.14 1438.43 1954.53 1438.62 1965.41 1448.41 1978.4 1460.11 1979.03 1470.76 1965.92 1482.57 1942.29 1503.86 1913.99 1516.03 1882.91 1521.82 1832.02 1531.31 1783.17 1525.07 1738.4 1498.64 1652.83 1448.12 1631.82 1330.16 1693.54 1251.41 1752.55 1176.13 1864.18 1161.37 1939.71 1219.97 1977.57 1249.34 1993.5 1290.73 1996.9 1337.28 1997.88 1350.64 1991.36 1356.27 1976.81 1356.33 1935.41 1356.5 1894.01 1356.39 1852.61 1356.4M1830.44 1314.25C1862.34 1314.25 1894.23 1314.28 1926.12 1314.23 1942.39 1314.21 1942.95 1313.36 1937.12 1298.8 1920.1 1256.28 1881.19 1231.57 1832.95 1232.65 1784.26 1233.75 1736.77 1264.45 1722.43 1303.64 1719.12 1312.69 1722.38 1314.41 1730.72 1314.35 1763.96 1314.08 1797.2 1314.24 1830.44 1314.25" fill="#A6A6A6" fill-rule="evenodd"/><path d="M2539.24 1248.65C2583.14 1173.66 2675.5 1172.17 2725.97 1206.92 2762.43 1232.03 2775.76 1269.34 2778.61 1310.98 2782.65 1369.99 2780.36 1429.14 2780.28 1488.22 2780.24 1515.48 2764.51 1525.73 2738.17 1516.92 2727.25 1513.27 2725.8 1504 2725.82 1494.02 2725.88 1439.84 2725.73 1385.66 2725.91 1331.47 2725.96 1319.74 2724.58 1308.18 2721.83 1296.94 2708.49 1242.32 2660.83 1219.28 2608.39 1241.7 2569.29 1258.41 2549.64 1289.63 2541.86 1329.9 2539.46 1342.3 2539.22 1354.75 2539.23 1367.29 2539.29 1409.83 2539.44 1452.37 2539.11 1494.9 2538.96 1513.73 2532.95 1518 2509.73 1517.8 2491.69 1517.62 2486.12 1512.57 2486.1 1494.79 2485.97 1401.64 2485.96 1308.51 2486.11 1215.37 2486.15 1198.33 2494.2 1191.5 2512.91 1191.35 2530.94 1191.21 2538.84 1198.49 2539.2 1215.88 2539.4 1225.68 2539.24 1235.48 2539.24 1248.65" fill="#A6A6A6" fill-rule="evenodd"/><path d="M1375.02 1289.73C1375.02 1223 1375.03 1156.27 1375.01 1089.54 1375 1079.53 1374.38 1068.62 1385.89 1064.42 1397.89 1060.03 1410.75 1059.22 1422.37 1065.86 1430.35 1070.41 1430.73 1078.96 1430.72 1087.27 1430.66 1137.44 1430.7 1187.59 1430.7 1237.75 1430.7 1309.41 1430.7 1381.06 1430.71 1452.71 1430.71 1472.96 1430.73 1472.98 1451.7 1472.99 1507 1473 1562.3 1472.94 1617.61 1473.02 1638.94 1473.05 1646.6 1483.34 1641.46 1503.84 1638.59 1515.28 1630.85 1518.03 1620.31 1518 1561.86 1517.86 1503.41 1517.94 1444.96 1517.94 1429.67 1517.95 1414.38 1518.01 1399.1 1517.92 1380.37 1517.81 1375.09 1512.71 1375.06 1493.93 1374.96 1425.87 1375.03 1357.8 1375.02 1289.73" fill="#A6A6A6" fill-rule="evenodd"/><g clip-path="url(#clip1)"><g clip-path="url(#clip2)"><g clip-path="url(#clip3)"><g clip-path="url(#clip4)"><path d="M884.669 140.549 1274.91 140.549 1274.91 418.402 884.669 418.402Z" fill="url(#fill5)" transform="matrix(1 0 0 1.00015 3.0001 830.496)"/></g><g clip-path="url(#clip6)"><path d="M-5.81064-0.00591414 1056.43-0.00591414 1056.43 835.097-5.81067 835.097Z" fill="url(#fill7)" transform="matrix(1 0 0 1.00015 3.0001 830.496)"/></g><g clip-path="url(#clip8)"><path d="M383.706 312.47 869.375 312.47 869.375 628.927 383.706 628.927Z" fill="url(#fill9)" transform="matrix(1 0 0 1.00015 3.0001 830.496)"/></g><g clip-path="url(#clip10)"><path d="M3209.4 226.967 3326.4 226.967 3326.4 327.439 3209.4 327.439Z" fill="url(#fill11)" transform="matrix(1 0 0 1.00015 3.0001 830.496)"/></g><g clip-path="url(#clip12)"><path d="M3366.33 359.695 3714.81 359.695 3714.81 838.356 3366.33 838.356Z" fill="url(#fill13)" transform="matrix(1 0 0 1.00015 3.0001 830.496)"/></g><g clip-path="url(#clip14)"><path d="M2827.85 240.738 3177.01 240.738 3177.01 694.278 2827.85 694.278Z" fill="url(#fill15)" transform="matrix(1 0 0 1.00015 3.0001 830.496)"/></g><g clip-path="url(#clip16)"><path d="M3794.27 232.875 4097.84 232.875 4097.84 686.41 3794.27 686.41Z" fill="url(#fill17)" transform="matrix(1 0 0 1.00015 3.0001 830.496)"/></g><g clip-path="url(#clip18)"><path d="M4139.96 280.15 4410.23 280.15 4410.23 695.792 4139.96 695.792Z" fill="url(#fill19)" transform="matrix(1 0 0 1.00015 3.0001 830.496)"/></g><g clip-path="url(#clip20)"><path d="M3222.58 365.828 3307.56 365.828 3307.56 686.306 3222.58 686.306Z" fill="url(#fill21)" transform="matrix(1 0 0 1.00015 3.0001 830.496)"/></g><g clip-path="url(#clip22)"><path d="M2016.17 338.197 2366.52 338.197 2366.52 705.858 2016.17 705.858Z" fill="url(#fill23)" transform="matrix(1 0 0 1.00015 3.0001 830.496)"/></g><g clip-path="url(#clip24)"><path d="M1613.48 337.854 1978.87 337.854 1978.87 684.493 1613.48 684.493Z" fill="url(#fill25)" transform="matrix(1 0 0 1.00015 3.0001 830.496)"/></g><g clip-path="url(#clip26)"><path d="M2466.88 338.454 2763.71 338.454 2763.71 679.02 2466.88 679.02Z" fill="url(#fill27)" transform="matrix(1 0 0 1.00015 3.0001 830.496)"/></g><g clip-path="url(#clip28)"><path d="M1356.08 214.639 1627.86 214.639 1627.86 671.181 1356.08 671.181Z" fill="url(#fill29)" transform="matrix(1 0 0 1.00015 3.0001 830.496)"/></g></g></g></g></g></svg>