<?xml version="1.0" encoding="UTF-8"?>
<svg width="1200pt" height="1200pt" version="1.1" viewBox="0 0 1200 1200" xmlns="http://www.w3.org/2000/svg">
 <path d="m970.39 755.96c39.48 39.48 39.477 103.49 0 142.96l-71.477 71.465c-39.477 39.469-103.48 39.469-142.95 0l-120.23-120.23c-19.734-19.738-51.738-19.738-71.477 0l-120.23 120.23c-39.477 39.469-103.47 39.477-142.95 0l-71.477-71.465c-39.48-39.48-39.484-103.49 0-142.96l120.23-120.23c19.738-19.738 19.738-51.738 0-71.48l-120.23-120.22c-39.48-39.48-39.477-103.49 0-142.96l71.469-71.465c39.477-39.477 103.48-39.469 142.95 0l120.23 120.23c19.734 19.738 51.738 19.738 71.477 0l120.23-120.23c39.477-39.477 103.48-39.477 142.95 0l71.469 71.465c39.48 39.48 39.484 103.49 0 142.96l-120.23 120.22c-19.738 19.738-19.738 51.746 0 71.48l120.23 120.23z" fill="#676767"/>
</svg>
