<svg width="1807" height="1694" xmlns="http://www.w3.org/2000/svg" xmlns:xlink="http://www.w3.org/1999/xlink" xml:space="preserve" overflow="hidden"><defs><clipPath id="clip0"><rect x="1298" y="396" width="1807" height="1694"/></clipPath></defs><g clip-path="url(#clip0)" transform="translate(-1298 -396)"><path d="M2014.38 926.796 2088.01 959.458C2056.03 1012.29 2036.47 1088.67 2036.47 1176.67 2036.47 1343.9 2106.63 1470 2199.69 1470 2291.21 1470 2362.9 1341.16 2362.9 1176.67 2362.9 1089.92 2342.82 1013.34 2310.57 960.077L2385.61 926.794C2396.79 921.848 2404 910.756 2404 898.537L2404 668.949C2404 658.486 2398.7 648.732 2389.92 643.021 2381.11 637.278 2369.99 636.416 2360.44 640.669L2200 711.81 2039.56 640.669C2030.01 636.465 2018.89 637.278 2010.08 643.021 2001.31 648.716 1996 658.487 1996 668.949L1996 898.537C1995.98 910.757 2003.2 921.816 2014.38 926.794ZM2166.04 960.772C2167.73 959.242 2169.44 957.752 2171.15 956.438 2172.64 955.303 2174.1 954.36 2175.59 953.394 2177.3 952.282 2179.01 951.138 2180.72 950.277 2182.38 949.407 2184.07 948.843 2185.7 948.222 2187.21 947.651 2188.7 946.958 2190.19 946.563 2193.36 945.75 2196.53 945.25 2199.68 945.25 2203.48 945.25 2207.12 946.04 2210.67 947.127 2211.81 947.473 2212.95 947.941 2214.09 948.416 2216.47 949.358 2218.75 950.47 2220.98 951.735 2222.25 952.451 2223.51 953.192 2224.75 954.038 2226.51 955.222 2228.17 956.511 2229.78 957.824 2231.4 959.137 2233.03 960.426 2234.64 961.956 2235.46 962.721 2236.18 963.486 2236.97 964.26 2271.58 999.024 2300.91 1078.66 2300.91 1176.71 2300.91 1189.04 2300.31 1200.93 2299.42 1212.61L2099.89 1212.61C2099.02 1200.93 2098.4 1189 2098.4 1176.71 2098.4 1079.26 2127.36 1000.11 2161.67 964.981 2163.14 963.467 2164.58 962.082 2166.04 960.777ZM2199.66 1408.13C2164.65 1408.13 2126.73 1354.91 2108.85 1274.46L2290.46 1274.46C2272.62 1354.91 2234.66 1408.13 2199.66 1408.13ZM2057.96 716.544 2187.41 773.951C2195.44 777.511 2204.54 777.511 2212.59 773.951L2342.05 716.544 2342.05 878.447 2269.98 910.417C2263.32 904.948 2256.4 900.566 2249.33 896.732 2248.32 896.16 2247.25 895.741 2246.21 895.201 2242.12 893.147 2238 891.117 2233.82 889.611 2231.24 888.669 2228.59 888.105 2225.98 887.388 2223.08 886.575 2220.18 885.584 2217.21 885.036 2211.48 883.997 2205.63 883.401 2199.71 883.401 2193.58 883.401 2187.56 884.021 2181.64 885.085 2180.94 885.205 2180.25 885.479 2179.58 885.608 2174.17 886.696 2168.87 888.178 2163.69 890.135 2163.32 890.256 2163.02 890.433 2162.67 890.578 2151.02 895.081 2139.99 901.734 2129.56 910.224L2057.96 878.448Z" fill="#00449E" fill-rule="evenodd"/><path d="M1611.79 1370.08 1686.65 1336.82C1697.8 1331.85 1705 1320.78 1705 1308.54L1705 1078.94C1705 1068.48 1699.71 1058.72 1690.95 1053.01 1682.17 1047.3 1671.14 1046.41 1661.54 1050.66L1501.48 1121.8 1341.46 1050.69C1331.81 1046.43 1320.78 1047.32 1312.05 1053.04 1303.3 1058.73 1298 1068.5 1298 1078.97L1298 1308.56C1298 1320.79 1305.2 1331.87 1316.35 1336.82L1390.72 1369.88C1358.44 1423.13 1338.39 1499.81 1338.39 1586.67 1338.39 1753.9 1408.38 1880 1501.22 1880 1592.53 1880 1664.05 1751.15 1664.05 1586.67 1664.02 1499.91 1643.98 1423.32 1611.79 1370.06ZM1400.2 1586.68C1400.2 1489.18 1429.11 1410 1463.36 1374.88 1464.79 1373.45 1466.2 1372.09 1467.61 1370.8 1469.29 1369.27 1471.02 1367.78 1472.73 1366.47 1474.24 1365.31 1475.75 1364.34 1477.26 1363.35 1478.91 1362.26 1480.62 1361.15 1482.28 1360.28 1483.99 1359.41 1485.69 1358.8 1487.4 1358.15 1488.86 1357.61 1490.29 1356.91 1491.75 1356.54 1494.92 1355.73 1498.08 1355.23 1501.23 1355.23 1505.01 1355.23 1508.65 1356.02 1512.19 1357.11 1513.32 1357.45 1514.47 1357.92 1515.6 1358.39 1517.98 1359.34 1520.25 1360.45 1522.48 1361.71 1523.74 1362.43 1525 1363.17 1526.24 1364.02 1527.99 1365.2 1529.65 1366.49 1531.26 1367.8 1532.87 1369.12 1534.49 1370.4 1536.1 1371.94 1536.92 1372.7 1537.63 1373.47 1538.43 1374.24 1572.96 1409 1602.22 1488.64 1602.22 1586.7 1602.22 1599.02 1601.62 1610.92 1600.73 1622.63L1401.67 1622.63C1400.78 1610.9 1400.2 1599 1400.2 1586.67ZM1359.81 1126.54 1488.95 1183.93C1496.96 1187.49 1506.04 1187.49 1514.08 1183.93L1643.22 1126.54 1643.22 1288.45 1571.33 1320.4C1564.68 1314.93 1557.78 1310.55 1550.73 1306.71 1549.72 1306.14 1548.65 1305.72 1547.62 1305.18 1543.53 1303.13 1539.43 1301.1 1535.25 1299.59 1532.68 1298.65 1530.03 1298.09 1527.43 1297.37 1524.54 1296.56 1521.64 1295.57 1518.68 1295.02 1512.97 1293.98 1507.13 1293.38 1501.22 1293.38 1495.34 1293.38 1489.5 1293.95 1483.78 1295.02 1480.74 1295.57 1477.78 1296.6 1474.76 1297.44 1472.26 1298.16 1469.74 1298.68 1467.26 1299.57 1462.93 1301.13 1458.68 1303.21 1454.46 1305.36 1453.59 1305.83 1452.68 1306.17 1451.81 1306.65 1444.81 1310.46 1437.91 1314.79 1431.3 1320.24L1359.83 1288.47 1359.83 1126.55ZM1501.2 1818.13C1466.28 1818.13 1428.44 1764.93 1410.61 1684.48L1591.78 1684.48C1573.95 1764.93 1536.11 1818.13 1501.2 1818.13Z" fill="#00449E" fill-rule="evenodd"/><path d="M1501 970C1518.11 970 1532 956.164 1532 939.109L1532 789.891C1532 772.837 1518.11 759 1501 759 1483.89 759 1470 772.837 1470 789.891L1470 939.109C1470 956.164 1483.86 970 1501 970Z" fill="#00449E" fill-rule="evenodd"/><path d="M3090.94 1082.01C3082.16 1076.29 3071.13 1075.41 3061.53 1079.66L2901.49 1150.8 2741.45 1079.66C2731.81 1075.41 2720.8 1076.29 2712.05 1082.01 2703.3 1087.73 2698 1097.48 2698 1107.94L2698 1337.54C2698 1349.77 2705.2 1360.85 2716.34 1365.82L2790.71 1398.88C2758.44 1452.13 2738.38 1528.79 2738.38 1615.67 2738.38 1782.9 2808.37 1909 2901.19 1909 2992.49 1909 3064 1780.15 3064 1615.67 3064 1528.94 3043.98 1452.32 3011.8 1399.1L3086.66 1365.84C3097.8 1360.87 3105 1349.81 3105 1337.56L3105 1107.97C3104.98 1097.48 3099.69 1087.7 3090.94 1082.01ZM2872.71 1395.43C2874.22 1394.27 2875.73 1393.31 2877.24 1392.32 2878.9 1391.23 2880.6 1390.12 2882.26 1389.25 2883.94 1388.38 2885.65 1387.79 2887.31 1387.14 2888.79 1386.6 2890.25 1385.88 2891.73 1385.51 2894.9 1384.7 2898.06 1384.2 2901.21 1384.2 2904.99 1384.2 2908.63 1384.99 2912.16 1386.07 2913.3 1386.42 2914.44 1386.89 2915.58 1387.36 2917.95 1388.3 2920.23 1389.42 2922.45 1390.68 2923.72 1391.4 2924.97 1392.14 2926.21 1392.98 2927.97 1394.17 2929.62 1395.46 2931.23 1396.77 2932.84 1398.08 2934.47 1399.37 2936.08 1400.9 2936.89 1401.67 2937.61 1402.43 2938.41 1403.21 2972.93 1437.97 3002.18 1517.61 3002.18 1615.66 3002.18 1627.99 3001.59 1639.89 3000.7 1651.6L2801.66 1651.6C2800.79 1639.9 2800.18 1627.99 2800.18 1615.66 2800.18 1518.17 2829.08 1438.98 2863.33 1403.87 2864.77 1402.41 2866.18 1401.05 2867.64 1399.73 2869.31 1398.2 2870.98 1396.74 2872.71 1395.42ZM2901.18 1847.12C2866.26 1847.12 2828.42 1793.91 2810.59 1713.47L2991.75 1713.47C2973.93 1793.89 2936.09 1847.12 2901.18 1847.12ZM3043.17 1317.42 2971.29 1349.37C2964.64 1343.9 2957.74 1339.52 2950.69 1335.68 2949.67 1335.11 2948.61 1334.69 2947.57 1334.15 2943.49 1332.1 2939.39 1330.07 2935.21 1328.56 2932.64 1327.62 2929.99 1327.06 2927.39 1326.34 2924.5 1325.53 2921.6 1324.54 2918.64 1323.99 2912.93 1322.95 2907.09 1322.35 2901.18 1322.35 2895.3 1322.35 2889.46 1322.93 2883.75 1323.99 2880.7 1324.54 2877.74 1325.58 2874.72 1326.41 2872.23 1327.13 2869.7 1327.65 2867.23 1328.54 2862.88 1330.1 2858.65 1332.18 2854.42 1334.33 2853.55 1334.8 2852.64 1335.14 2851.77 1335.62 2844.78 1339.43 2837.88 1343.76 2831.27 1349.21L2759.81 1317.44 2759.81 1155.53 2888.94 1212.92C2896.95 1216.48 2906.03 1216.48 2914.06 1212.92L3043.19 1155.53 3043.19 1317.42Z" fill="#00449E" fill-rule="evenodd"/><path d="M2901 970C2918.11 970 2932 956.164 2932 939.109L2932 789.891C2932 772.837 2918.11 759 2901 759 2883.89 759 2870 772.837 2870 789.891L2870 939.109C2870 956.164 2883.87 970 2901 970Z" fill="#00449E" fill-rule="evenodd"/><path d="M2200 584C2217.11 584 2231 570.196 2231 553.18L2231 426.82C2231 409.805 2217.11 396 2200 396 2182.89 396 2169 409.805 2169 426.82L2169 553.18C2169 570.196 2182.89 584 2200 584Z" fill="#00449E" fill-rule="evenodd"/><path d="M2574 1113.99C2591.11 1113.99 2605 1100.15 2605 1083.08L2605 777.914C2605 760.847 2591.11 747 2574 747 2556.89 747 2543 760.847 2543 777.914L2543 1083.08C2543 1100.15 2556.89 1114 2574 1114Z" fill="#00449E" fill-rule="evenodd"/><path d="M1836.5 1113.99C1853.34 1113.99 1867 1100.15 1867 1083.08L1867 777.914C1867 760.847 1853.34 747 1836.5 747 1819.66 747 1806 760.847 1806 777.914L1806 1083.08C1806 1100.15 1819.65 1114 1836.5 1114Z" fill="#00449E" fill-rule="evenodd"/><path d="M2574 1250C2591.11 1250 2605 1236.09 2605 1218.94L2605 1184.06C2605 1166.91 2591.11 1153 2574 1153 2556.89 1153 2543 1166.91 2543 1184.06L2543 1218.94C2543 1236.09 2556.89 1250 2574 1250Z" fill="#00449E" fill-rule="evenodd"/><path d="M1836.5 1250C1853.34 1250 1867 1236.09 1867 1218.94L1867 1184.06C1867 1166.91 1853.34 1153 1836.5 1153 1819.66 1153 1806 1166.91 1806 1184.06L1806 1218.94C1806 1236.09 1819.65 1250 1836.5 1250Z" fill="#00449E" fill-rule="evenodd"/><path d="M1501 715C1518.11 715 1532 701.089 1532 683.942L1532 649.058C1532 631.912 1518.11 618 1501 618 1483.89 618 1470 631.912 1470 649.058L1470 683.942C1470 701.113 1483.89 715 1501 715Z" fill="#00449E" fill-rule="evenodd"/><path d="M2902 715C2919.11 715 2933 701.089 2933 683.942L2933 649.058C2933 631.912 2919.11 618 2902 618 2884.89 618 2871 631.912 2871 649.058L2871 683.942C2871 701.113 2884.87 715 2902 715Z" fill="#00449E" fill-rule="evenodd"/><path d="M1674 828C1691.11 828 1705 814.167 1705 797.118L1705 620.883C1705 603.833 1691.11 590 1674 590 1656.89 590 1643 603.833 1643 620.883L1643 797.118C1643 814.191 1656.89 828 1674 828Z" fill="#00449E" fill-rule="evenodd"/><path d="M2729 828C2746.11 828 2760 814.167 2760 797.118L2760 620.883C2760 603.833 2746.11 590 2729 590 2711.89 590 2698 603.833 2698 620.883L2698 797.118C2698 814.191 2711.89 828 2729 828Z" fill="#00449E" fill-rule="evenodd"/><path d="M2797.05 2028.02 2540.22 2028.02 2660.96 1952.55C2672.74 1945.22 2678.17 1930.92 2674.28 1917.58 2670.42 1904.37 2658.29 1895.3 2644.58 1895.3L2644.24 1895.3 2457.21 1897.35 2504.21 1767.73C2508.97 1754.6 2504.39 1739.9 2493 1731.85 2481.59 1723.77 2466.24 1724.34 2455.45 1733.24L2289.43 1870.17 2232.56 1680.08C2228.65 1666.97 2216.6 1658 2202.93 1658 2189.27 1658 2177.21 1666.97 2173.3 1680.08L2116.37 1870.17 1950.35 1733.24C1939.54 1724.34 1924.22 1723.77 1912.83 1731.85 1901.42 1739.9 1896.84 1754.6 1901.59 1767.73L1948.82 1898.02 1755.16 1895.3 1754.71 1895.3C1740.9 1895.3 1728.74 1904.47 1724.96 1917.8 1721.12 1931.26 1726.79 1945.63 1738.79 1952.84L1863.89 2028.03 1612.94 2028.04C1595.86 2028.04 1582 2041.92 1582 2059.02 1582 2076.12 1595.86 2090 1612.94 2090L2797.06 2090C2814.14 2090 2828 2076.12 2828 2059.02 2828 2041.92 2814.16 2028.02 2797.06 2028.02ZM1984.12 2028.02 1869.06 1958.87 1992.78 1960.61C2002.24 1960.61 2012.53 1955.87 2018.43 1947.59 2024.32 1939.29 2025.78 1928.63 2022.29 1919.07L1998.4 1853.17 2112.96 1947.68C2120.95 1954.27 2131.77 1956.44 2141.62 1953.4 2151.55 1950.38 2159.29 1942.6 2162.26 1932.66L2202.93 1796.92 2243.54 1932.66C2246.52 1942.6 2254.26 1950.38 2264.16 1953.4 2274.09 1956.45 2284.85 1954.27 2292.85 1947.68L2407.38 1853.21 2383.78 1918.26C2380.32 1927.83 2381.75 1938.46 2387.62 1946.77 2393.51 1955.04 2402.84 1960.22 2413.19 1959.83L2534.62 1958.49 2423.35 2028.03Z" fill="#00449E" fill-rule="evenodd"/></g></svg>