<?xml version="1.0" encoding="UTF-8"?>
<svg width="1200pt" height="1200pt" version="1.1" viewBox="0 0 1200 1200" xmlns="http://www.w3.org/2000/svg">
 <g fill="#007335">
  <path d="m1060.8 450h-153.6c-19.199 0-34.801 15.602-34.801 34.801v650.4c0 19.199 15.602 34.801 34.801 34.801h153.6c19.199 0 34.801-15.602 34.801-34.801v-650.4c0-19.199-15.602-34.801-34.801-34.801z"/>
  <path d="m742.8 691.2h-153.6c-19.199 0-34.801 15.602-34.801 34.801v408c0 19.199 15.602 34.801 34.801 34.801h153.6c19.199 0 34.801-15.602 34.801-34.801v-408c0-19.199-15.602-34.801-34.801-34.801z"/>
  <path d="m426 933.6h-153.6c-19.199 0-34.801 15.602-34.801 34.801v166.8c0 19.199 15.602 34.801 34.801 34.801h153.6c19.199 0 34.801-15.602 34.801-34.801v-166.8c0-19.199-15.602-34.797-34.801-34.797z"/>
  <path d="m615.6 529.2c14.398 14.398 36 14.398 50.398 0l258-258 62.398 62.398c19.199 19.199 51.602 7.1992 54-19.199l30-248.4c2.3984-20.398-15.602-38.398-36-36l-247.2 30c-26.398 3.6016-38.398 36-19.199 54l62.398 62.398-259.2 259.2c-14.398 14.398-14.398 36 0 50.398z"/>
  <path d="m325.2 478.8h-67.199c-28.801 0-54-20.398-57.602-48-2.3984-15.602 2.3984-32.398 13.199-44.398 10.801-12 26.398-19.199 42-19.199h73.199c27.602 0 50.398 19.199 55.199 46.801 1.1992 9.6016 8.3984 15.602 18 15.602h61.199c4.8008 0 9.6016-2.3984 13.199-6 3.6016-3.6016 4.8008-8.3984 4.8008-13.199-7.1992-74.398-66-132-139.2-138v-52.801c0-9.6016-8.3984-18-18-18h-60c-9.6016 0-18 8.3984-18 18v52.801c-38.398 2.3984-74.398 20.398-100.8 49.199-27.602 30-40.801 69.602-38.398 110.4 4.8008 80.398 73.199 142.8 156 142.8h67.199c28.801 0 54 20.398 57.602 48 2.3984 15.602-2.3984 32.398-13.199 44.398-10.801 12-26.398 19.199-42 19.199h-73.199c-27.602 0-50.398-19.199-55.199-46.801-1.1992-8.3984-8.3984-14.398-18-14.398h-61.199c-4.8008 0-9.6016 2.3984-13.199 6-3.6016 3.6016-4.8008 8.3984-4.8008 14.398 7.1992 74.398 66 132 139.2 136.8v52.801c0 9.6016 8.3984 18 18 18h60c9.6016 0 18-8.3984 18-18v-52.801c39.602-2.3984 74.398-20.398 100.8-49.199 27.602-30 40.801-69.602 38.398-110.4-4.8008-81.605-73.199-144-156-144z"/>
 </g>
</svg>
