<svg width="1558" height="1559" xmlns="http://www.w3.org/2000/svg" xmlns:xlink="http://www.w3.org/1999/xlink" xml:space="preserve" overflow="hidden"><defs><clipPath id="clip0"><rect x="1421" y="458" width="1558" height="1559"/></clipPath></defs><g clip-path="url(#clip0)" transform="translate(-1421 -458)"><path d="M2085.89 910.547C2117.2 885.589 2156.85 870.682 2200 870.682 2301.23 870.682 2383.29 952.798 2383.29 1054.09L2383.29 1099.94 2474.94 1099.94 2474.94 962.387C2474.94 911.74 2515.97 870.682 2566.59 870.682L2589.5 870.682 2589.5 725.291C2536.1 706.41 2497.85 655.456 2497.85 595.558 2497.85 519.592 2559.4 458 2635.32 458 2711.25 458 2772.79 519.589 2772.79 595.558 2772.79 655.456 2734.54 706.409 2681.14 725.291L2681.14 870.682 2704.05 870.682C2754.67 870.682 2795.71 911.74 2795.71 962.387L2795.71 1099.94C2846.32 1099.94 2887.35 1141 2887.35 1191.65L2887.35 1371.34 2936.74 1375.2C2960.6 1377.07 2979 1396.98 2979 1420.92L2979 1558.48C2979 1568.03 2976.01 1577.35 2970.46 1585.13L2907.66 1673.11 2933.18 1673.11C2958.48 1673.11 2979 1693.64 2979 1718.96 2979 1744.29 2958.48 1764.81 2933.18 1764.81L1466.82 1764.81C1441.52 1764.81 1421 1744.29 1421 1718.96 1421 1693.64 1441.52 1673.11 1466.82 1673.11L1604.29 1673.11 1604.29 1601.86 1440.85 1455.04C1431.65 1446.77 1426.17 1435.13 1425.67 1422.77L1421.04 1308.14C1419.93 1280.69 1443.03 1258.43 1470.39 1260.57L1925.07 1296.12 1925.07 1191.65C1925.07 1141 1966.1 1099.94 2016.71 1099.94L2016.71 1054.09C2016.71 1029.54 2021.53 1006.12 2030.27 984.729L1765.87 842.271C1743.58 830.264 1735.25 802.454 1747.25 780.158 1759.25 757.861 1787.03 749.519 1809.31 761.527ZM1516.47 1399.72 1680.74 1547.27C1690.42 1555.97 1695.95 1568.37 1695.95 1581.39L1695.95 1673.1 2795.04 1673.1 2887.37 1543.77 2887.37 1463.32 1514.71 1356ZM2795.71 1364.17 2795.71 1191.64 2016.7 1191.64 2016.7 1303.27ZM2635.32 641.393C2660.63 641.393 2681.14 620.868 2681.14 595.539 2681.14 570.221 2660.63 549.686 2635.32 549.686 2610.02 549.686 2589.49 570.219 2589.49 595.539 2589.49 620.866 2610.01 641.393 2635.32 641.393ZM2704.05 962.369 2566.58 962.369 2566.58 1099.93 2704.05 1099.93ZM2291.64 1054.07C2291.64 1003.43 2250.61 962.369 2199.99 962.369 2149.38 962.369 2108.35 1003.43 2108.35 1054.07L2108.35 1099.93 2291.64 1099.93ZM1970.88 2017C1945.57 2017 1925.05 1996.47 1925.05 1971.15 1925.05 1945.82 1945.56 1925.29 1970.88 1925.29L2429.11 1925.29C2454.42 1925.29 2474.94 1945.82 2474.94 1971.15 2474.94 1996.47 2454.42 2017 2429.11 2017Z" fill="#00449E" fill-rule="evenodd"/></g></svg>